[2026-03-25T04:54:28] SOURCE: D:\apps\ErsatzTV-HLS-Copy-Prep\source\30.mp4
[2026-03-25T04:54:28] TARGET: D:\apps\ErsatzTV-HLS-Copy-Prep\target\30.mp4
[2026-03-25T04:54:28] FPS: 24.999179
[2026-03-25T04:54:28] CMD: ["D:\\apps\\ErsatzTV-HLS-Copy-Prep\\bin\\ffmpeg.exe", "-y", "-hide_banner", "-loglevel", "info", "-stats_period", "5", "-progress", "pipe:1", "-i", "D:\\apps\\ErsatzTV-HLS-Copy-Prep\\source\\30.mp4", "-map", "0:v:0", "-map", "0:a:0?", "-sn", "-dn", "-vf", "scale=trunc(iw/2)*2:trunc(ih/2)*2,setsar=1,fps=24.999179", "-c:v", "libx264", "-preset", "medium", "-crf", "18", "-pix_fmt", "yuv420p", "-profile:v", "high", "-level", "4.1", "-g", "25", "-keyint_min", "25", "-sc_threshold", "0", "-bf", "0", "-force_key_frames", "expr:gte(t,n_forced*1)", "-c:a", "aac", "-b:a", "192k", "-ar", "48000", "-ac", "2", "-movflags", "+faststart", "D:\\apps\\ErsatzTV-HLS-Copy-Prep\\target\\30.mp4"]

ffmpeg stats and -progress period set to 5.
Input #0, mov,mp4,m4a,3gp,3g2,mj2, from 'D:\apps\ErsatzTV-HLS-Copy-Prep\source\30.mp4':
  Metadata:
    major_brand     : isom
    minor_version   : 512
    compatible_brands: isomiso2avc1mp41
    encoder         : ShanaEncoder
  Duration: 00:23:22.13, start: 0.000000, bitrate: 2965 kb/s
  Stream #0:0[0x1](und): Video: h264 (High) (avc1 / 0x31637661), yuv420p(progressive), 1920x1080 [SAR 1:1 DAR 16:9], 2767 kb/s, 25 fps, 25 tbr, 12800 tbn (default)
      Metadata:
        handler_name    : VideoHandler
        vendor_id       : [0][0][0][0]
  Stream #0:1[0x2](und): Audio: aac (LC) (mp4a / 0x6134706D), 48000 Hz, stereo, fltp, 192 kb/s (default)
      Metadata:
        handler_name    : SoundHandler
        vendor_id       : [0][0][0][0]
Stream mapping:
  Stream #0:0 -> #0:0 (h264 (native) -> h264 (libx264))
  Stream #0:1 -> #0:1 (aac (native) -> aac (native))
Press [q] to stop, [?] for help
[libx264 @ 0000028c34b12680] using SAR=1/1
[libx264 @ 0000028c34b12680] using cpu capabilities: MMX2 SSE2Fast SSSE3 SSE4.2 AVX
[libx264 @ 0000028c34b12680] profile High, level 4.1, 4:2:0, 8-bit
[libx264 @ 0000028c34b12680] 264 - core 165 - H.264/MPEG-4 AVC codec - Copyleft 2003-2025 - http://www.videolan.org/x264.html - options: cabac=1 ref=3 deblock=1:0:0 analyse=0x3:0x113 me=hex subme=7 psy=1 psy_rd=1.00:0.00 mixed_ref=1 me_range=16 chroma_me=1 trellis=1 8x8dct=1 cqm=0 deadzone=21,11 fast_pskip=1 chroma_qp_offset=-2 threads=12 lookahead_threads=2 sliced_threads=0 nr=0 decimate=1 interlaced=0 bluray_compat=0 constrained_intra=0 bframes=0 weightp=2 keyint=25 keyint_min=13 scenecut=0 intra_refresh=0 rc_lookahead=25 rc=crf mbtree=1 crf=18.0 qcomp=0.60 qpmin=0 qpmax=69 qpstep=4 ip_ratio=1.40 aq=1:1.00
Output #0, mp4, to 'D:\apps\ErsatzTV-HLS-Copy-Prep\target\30.mp4':
  Metadata:
    major_brand     : isom
    minor_version   : 512
    compatible_brands: isomiso2avc1mp41
    encoder         : Lavf61.7.100
  Stream #0:0(und): Video: h264 (avc1 / 0x31637661), yuv420p(tv, progressive), 1920x1080 [SAR 1:1 DAR 16:9], q=2-31, 25 fps, 24999179.00 tbn (default)
      Metadata:
        handler_name    : VideoHandler
        vendor_id       : [0][0][0][0]
        encoder         : Lavc61.19.101 libx264
      Side data:
        cpb: bitrate max/min/avg: 0/0/0 buffer size: 0 vbv_delay: N/A
  Stream #0:1(und): Audio: aac (LC) (mp4a / 0x6134706D), 48000 Hz, stereo, fltp, 192 kb/s (default)
      Metadata:
        handler_name    : SoundHandler
        vendor_id       : [0][0][0][0]
        encoder         : Lavc61.19.101 aac
[vost#0:0/libx264 @ 0000028c34b12400] Error submitting a packet to the muxer: No space left on device
    Last message repeated 1 times
[out#0/mp4 @ 0000028c3201b440] Error muxing a packet
[out#0/mp4 @ 0000028c3201b440] Task finished with error code: -28 (No space left on device)
[out#0/mp4 @ 0000028c3201b440] Terminating thread with return code -28 (No space left on device)
[mp4 @ 0000028c3200fec0] Starting second pass: moving the moov atom to the beginning of the file
[out#0/mp4 @ 0000028c3201b440] Error writing trailer: No space left on device
[out#0/mp4 @ 0000028c3201b440] Error closing file: No space left on device
[out#0/mp4 @ 0000028c3201b440] video:249KiB audio:88KiB subtitle:0KiB other streams:0KiB global headers:0KiB muxing overhead: unknown
frame=   20 fps=8.2 q=-1.0 Lsize=       0KiB time=00:00:00.84 bitrate=   0.5kbits/s speed=0.345x    
frame=20
fps=8.21
stream_0_0_q=-1.0
bitrate=   0.5kbits/s
total_size=48
out_time_us=840028
out_time_ms=840028
out_time=00:00:00.840028
dup_frames=0
drop_frames=0
speed=0.345x
progress=end
[libx264 @ 0000028c34b12680] frame I:4     Avg QP: 8.61  size: 47355
[libx264 @ 0000028c34b12680] frame P:94    Avg QP:13.41  size: 12981
[libx264 @ 0000028c34b12680] mb I  I16..4: 59.5% 32.7%  7.8%
[libx264 @ 0000028c34b12680] mb P  I16..4:  5.1% 15.3%  0.6%  P16..4: 12.7%  3.4%  1.3%  0.0%  0.0%    skip:61.6%
[libx264 @ 0000028c34b12680] 8x8 transform intra:66.1% inter:71.6%
[libx264 @ 0000028c34b12680] coded y,uvDC,uvAC intra: 14.1% 31.7% 10.7% inter: 5.5% 12.7% 1.4%
[libx264 @ 0000028c34b12680] i16 v,h,dc,p: 62% 23% 10%  5%
[libx264 @ 0000028c34b12680] i8 v,h,dc,ddl,ddr,vr,hd,vl,hu: 46% 14% 37%  1%  0%  0%  0%  0%  0%
[libx264 @ 0000028c34b12680] i4 v,h,dc,ddl,ddr,vr,hd,vl,hu: 46% 26% 14%  2%  3%  3%  2%  2%  2%
[libx264 @ 0000028c34b12680] i8c dc,h,v,p: 76% 11% 11%  2%
[libx264 @ 0000028c34b12680] Weighted P-Frames: Y:17.0% UV:12.8%
[libx264 @ 0000028c34b12680] ref P L0: 73.2%  6.1% 15.7%  4.6%  0.3%
[libx264 @ 0000028c34b12680] kb/s:2876.69
[aac @ 0000028c320202c0] Qavg: 2417.336
Conversion failed!
